<?xml version="1.0" encoding="UTF-8"?>
<svg width="178px" height="50px" viewBox="0 0 178 50" version="1.1" xmlns="http://www.w3.org/2000/svg" xmlns:xlink="http://www.w3.org/1999/xlink">
    <!-- Generator: Sketch 57.1 (83088) - https://sketch.com -->
    <title>logo</title>
    <desc>Created with Sketch.</desc>
    <defs>
        <path d="M7.56835938,21.9970703 L7.56835938,35.6933594 L0,35.6933594 L0,0 L10.4003906,0 C15.2506753,0 18.8395066,0.882966431 21.1669922,2.64892578 C23.4944778,4.41488513 24.6582031,7.09633618 24.6582031,10.6933594 C24.6582031,12.7929792 24.0804094,14.6606364 22.9248047,16.2963867 C21.7692,17.9321371 20.1334741,19.2138625 18.0175781,20.1416016 C23.3886987,28.1657302 26.8880127,33.3495977 28.515625,35.6933594 L20.1171875,35.6933594 L11.5966797,21.9970703 L7.56835938,21.9970703 Z" id="path-1"></path>
    </defs>
    <g id="Page-1" stroke="none" stroke-width="1" fill="none" fill-rule="evenodd">
        <g id="Artboard" transform="translate(-627.000000, -141.000000)">
            <g id="logo" transform="translate(627.000000, 141.000000)">
                <g id="logo-text" transform="translate(56.000000, 7.793945)">
                    <path d="M24.8535156,0.512695312 L32.4951172,0.512695312 L20.3613281,36.2060547 L12.109375,36.2060547 L0,0.512695312 L7.64160156,0.512695312 L14.3554688,21.7529297 C14.7298196,23.0061912 15.1163717,24.4669513 15.5151367,26.1352539 C15.9139017,27.8035565 16.1621089,28.9632129 16.2597656,29.6142578 C16.438803,28.1168545 17.0491484,25.496438 18.0908203,21.7529297 L24.8535156,0.512695312 Z" id="Path" fill="#15223E" fill-rule="nonzero"></path>
                    <g id="Path" transform="translate(37.987305, 0.512695)">
                        <mask id="mask-2" fill="white">
                            <use xlink:href="#path-1"></use>
                        </mask>
                        <use id="Mask" fill="#087E8B" fill-rule="nonzero" xlink:href="#path-1"></use>
                        <path d="M7.56835938,15.8447266 L10.0097656,15.8447266 C12.4023557,15.8447266 14.1682886,15.4459675 15.3076172,14.6484375 C16.4469458,13.8509075 17.0166016,12.5976648 17.0166016,10.8886719 C17.0166016,9.19595508 16.4347389,7.99154004 15.2709961,7.27539062 C14.1072533,6.55924121 12.3046997,6.20117188 9.86328125,6.20117188 L7.56835938,6.20117188 L7.56835938,15.8447266 Z" fill="#FFFFFF" fill-rule="nonzero" mask="url(#mask-2)"></path>
                    </g>
                    <path d="M93.0644531,26.2939453 C93.0644531,29.5166177 91.9047968,32.0556548 89.5854492,33.9111328 C87.2661017,35.7666108 84.0394087,36.6943359 79.9052734,36.6943359 C76.0966606,36.6943359 72.7275537,35.9781973 69.7978516,34.5458984 L69.7978516,27.5146484 C72.2067178,28.5888726 74.2452716,29.3457009 75.9135742,29.7851562 C77.5818768,30.2246116 79.1077405,30.4443359 80.4912109,30.4443359 C82.1513755,30.4443359 83.424963,30.1269563 84.3120117,29.4921875 C85.1990604,28.8574187 85.6425781,27.9134177 85.6425781,26.6601562 C85.6425781,25.960283 85.4472676,25.3377306 85.0566406,24.7924805 C84.6660137,24.2472303 84.0922889,23.7223333 83.3354492,23.2177734 C82.5786095,22.7132136 81.03647,21.9075576 78.7089844,20.8007812 C76.5279839,19.7753855 74.8922581,18.7906948 73.8017578,17.8466797 C72.7112576,16.9026646 71.840498,15.8040427 71.1894531,14.5507812 C70.5384082,13.2975198 70.2128906,11.8326907 70.2128906,10.15625 C70.2128906,6.99868213 71.2830297,4.5166106 73.4233398,2.70996094 C75.56365,0.903311279 78.521791,0 82.2978516,0 C84.1533296,0 85.9233314,0.219724365 87.6079102,0.659179688 C89.2924889,1.09863501 91.0543528,1.71711841 92.8935547,2.51464844 L90.4521484,8.3984375 C88.547842,7.61718359 86.9731508,7.07194165 85.7280273,6.76269531 C84.4829039,6.45344897 83.258144,6.29882812 82.0537109,6.29882812 C80.6214121,6.29882812 79.5227903,6.63248364 78.7578125,7.29980469 C77.9928347,7.96712573 77.6103516,8.83788525 77.6103516,9.91210938 C77.6103516,10.5794304 77.7649724,11.1612931 78.0742188,11.6577148 C78.3834651,12.1541366 78.8758104,12.634275 79.5512695,13.0981445 C80.2267286,13.562014 81.8258337,14.3961528 84.3486328,15.6005859 C87.685238,17.195646 89.971999,18.7947511 91.2089844,20.3979492 C92.4459697,22.0011473 93.0644531,23.9664597 93.0644531,26.2939453 Z" id="Path" fill="#06A77D" fill-rule="nonzero"></path>
                    <polygon id="Path" fill="#FE7F2D" fill-rule="nonzero" points="121.09082 36.2060547 100.53418 36.2060547 100.53418 0.512695312 121.09082 0.512695312 121.09082 6.71386719 108.102539 6.71386719 108.102539 14.5507812 120.1875 14.5507812 120.1875 20.7519531 108.102539 20.7519531 108.102539 29.9560547 121.09082 29.9560547"></polygon>
                </g>
                <g id="Symbol">
                    <circle id="Oval" stroke="#15223E" stroke-width="2" fill="#FFFFFF" cx="25" cy="25" r="24"></circle>
                    <circle id="Oval" stroke="#06A77D" stroke-width="4" fill="#FFFFFF" cx="25" cy="25" r="21"></circle>
                    <g id="Group" transform="translate(23.709118, 24.622035) rotate(11.000000) translate(-23.709118, -24.622035) translate(10.209118, 12.122035)">
                        <path d="M5.5,10.5 L22.5,20.5" id="Line" stroke="#087E8B" opacity="0.704892113" stroke-linecap="square"></path>
                        <path d="M22.5,20.5 L21.5,3.5" id="Line-2" stroke="#087E8B" opacity="0.704892113" stroke-linecap="square"></path>
                        <circle id="Oval" fill="#FE7F2D" cx="22.5" cy="20.5" r="4.5"></circle>
                        <circle id="Oval" fill="#FE7F2D" cx="6" cy="10" r="6"></circle>
                        <circle id="Oval" fill="#FE7F2D" cx="21.5" cy="3.5" r="3.5"></circle>
                    </g>
                </g>
            </g>
        </g>
    </g>
</svg>